# xmcd
#
# Track frame offsets:
# 150
# 12715
# 48206
# 85729
# 102241
# 139470
# 165904
# 195327
# 214130
# 261088
# 285768
# 312725
#
# Disc length: 4536 seconds
#
# Revision: 0
# Processed by: cddbd v1.5.1PL0 Copyright (c) Steve Scherf et al.
# Submitted via: Axialis_AX_CDPlayer 2.6
#
DISCID=a211b60c
DTITLE=BLUES - Gov't Mule (Live) - Classic Mule - The Roxy Atlanta, GA 02-27
DTITLE=98 \n[CD1]
DYEAR=1900
DGENRE=
TTITLE0=Intro
TTITLE1=Blind Man In The Dark
TTITLE2=Thorazine Shuffle
TTITLE3=Thelonius Beck
TTITLE4=Game Face
TTITLE5=Towering Fool
TTITLE6=Birth Of The Mule
TTITLE7=John The Revelator
TTITLE8=She Said, She Said
TTITLE9=Larger Than Life
TTITLE10=Raven Black Night
TTITLE11=I Shall Return
EXTD=
EXTT0=
EXTT1=
EXTT2=
EXTT3=
EXTT4=
EXTT5=
EXTT6=
EXTT7=
EXTT8=
EXTT9=
EXTT10=
EXTT11=
PLAYORDER=
